<?xml version="1.0" standalone="no"?>
<!DOCTYPE svg PUBLIC "-//W3C//DTD SVG 20010904//EN"
 "http://www.w3.org/TR/2001/REC-SVG-20010904/DTD/svg10.dtd">
<svg version="1.0" xmlns="http://www.w3.org/2000/svg"
 width="1616.000000pt" height="1616.000000pt" viewBox="0 0 1616.000000 1616.000000"
 preserveAspectRatio="xMidYMid meet">
<metadata>
Created by potrace 1.11, written by Peter Selinger 2001-2013
</metadata>
<g transform="translate(0.000000,1616.000000) scale(0.100000,-0.100000)"
fill="#000000" stroke="none">
<path d="M2990 16154 c-427 -40 -740 -121 -1095 -280 -363 -164 -677 -385
-971 -685 -511 -523 -809 -1142 -906 -1884 -20 -150 -19 -10224 0 -10400 71
-628 272 -1143 633 -1620 478 -632 1164 -1066 1926 -1221 316 -64 -177 -58
5423 -62 3703 -2 5119 0 5210 8 636 57 1230 295 1738 696 129 102 408 383 512
514 376 477 600 1019 682 1645 11 81 13 1064 13 5225 0 4889 -1 5131 -18 5255
-70 505 -239 958 -510 1365 -476 717 -1208 1213 -2043 1385 -314 65 185 59
-5449 61 -2811 0 -5126 -1 -5145 -2z m7120 -4340 c0 -5 -254 -614 -625 -1499
-106 -253 -426 -1018 -710 -1700 -835 -2003 -1057 -2532 -1349 -3230 -153
-363 -314 -747 -358 -852 l-81 -193 -629 0 c-500 0 -629 3 -625 13 3 6 37 86
75 177 38 91 264 633 502 1205 238 572 563 1353 722 1735 487 1167 1609 3861
1713 4113 l99 237 633 0 c348 0 633 -3 633 -6z m3827 -2929 l1073 -510 -3
-363 -2 -364 -810 -370 c-445 -203 -1177 -536 -1625 -740 -448 -204 -1002
-456 -1230 -561 -228 -104 -434 -198 -457 -208 l-43 -18 0 527 0 527 1493 596
c888 354 1492 600 1492 608 0 7 -625 280 -1490 650 l-1490 636 -3 532 -2 531
1012 -482 c557 -265 1496 -711 2085 -991z m-8617 896 l0 -529 -102 -43 c-57
-23 -726 -309 -1488 -635 -1089 -466 -1385 -596 -1385 -610 0 -18 2 -19 2280
-933 l690 -277 3 -533 c2 -425 0 -532 -10 -528 -15 6 -835 381 -948 434 -41
19 -347 159 -680 310 -333 152 -978 446 -1435 655 -456 209 -890 408 -962 441
l-133 60 0 362 0 362 388 185 c1271 610 2646 1269 3167 1519 330 158 603 288
608 288 4 1 7 -237 7 -528z"/>
</g>
</svg>
